<svg xmlns="http://www.w3.org/2000/svg" viewBox="0 0 32 32">
  <defs>
    <linearGradient id="grad" x1="0%" y1="0%" x2="100%" y2="100%">
      <stop offset="0%" style="stop-color:#07C160;stop-opacity:1" />
      <stop offset="100%" style="stop-color:#06AD56;stop-opacity:1" />
    </linearGradient>
  </defs>
  <!-- 背景圆角矩形 -->
  <rect x="2" y="2" width="28" height="28" rx="6" fill="url(#grad)"/>
  <!-- 书本主体 -->
  <path d="M8 7 h8 v18 h-8 a1 1 0 0 1 -1 -1 v-16 a1 1 0 0 1 1 -1" fill="white" opacity="0.95"/>
  <path d="M24 7 h-8 v18 h8 a1 1 0 0 0 1 -1 v-16 a1 1 0 0 0 -1 -1" fill="white" opacity="0.85"/>
  <!-- 书脊 -->
  <line x1="16" y1="7" x2="16" y2="25" stroke="#06AD56" stroke-width="1" opacity="0.3"/>
  <!-- 书签 -->
  <path d="M18 7 v6 l2 -1.5 l2 1.5 v-6" fill="#FFD700"/>
  <!-- 文字线条 -->
  <line x1="9" y1="11" x2="14" y2="11" stroke="#07C160" stroke-width="1.5" stroke-linecap="round" opacity="0.6"/>
  <line x1="9" y1="14" x2="13" y2="14" stroke="#07C160" stroke-width="1.5" stroke-linecap="round" opacity="0.4"/>
  <line x1="9" y1="17" x2="14" y2="17" stroke="#07C160" stroke-width="1.5" stroke-linecap="round" opacity="0.4"/>
</svg>
